<svg width="292" height="292" viewBox="0 0 292 292" fill="none" xmlns="http://www.w3.org/2000/svg">
<path d="M0 73.0641C0 32.7828 32.6545 0.128296 72.9358 0.128296H218.808C259.089 0.128296 291.743 32.7828 291.743 73.0641V218.936C291.743 259.217 259.089 291.872 218.808 291.872H72.9358C32.6545 291.872 0 259.217 0 218.936V73.0641Z" fill="#254CE6"/>
<path d="M0 73.0641C0 32.7828 32.6545 0.128296 72.9358 0.128296H218.808C259.089 0.128296 291.743 32.7828 291.743 73.0641V218.936C291.743 259.217 259.089 291.872 218.808 291.872H72.9358C32.6545 291.872 0 259.217 0 218.936V73.0641Z" fill="white" fill-opacity="0.93"/>
<path d="M72.9358 0.128296C32.6545 0.128296 0 32.7828 0 73.0641V146L145.872 0.128296H72.9358Z" fill="#254CE6"/>
<path d="M72.9358 0.128296C32.6545 0.128296 0 32.7828 0 73.0641V146L145.872 0.128296H72.9358Z" fill="white" fill-opacity="0.84"/>
<path d="M145.872 291.872H218.808C259.089 291.872 291.743 259.217 291.743 218.936V146L145.872 291.872Z" fill="#254CE6"/>
<path d="M145.872 291.872H218.808C259.089 291.872 291.743 259.217 291.743 218.936V146L145.872 291.872Z" fill="white" fill-opacity="0.84"/>
</svg>
